<svg width="508" height="221" viewBox="0 0 508 221" fill="none" xmlns="http://www.w3.org/2000/svg">
<g clip-path="url(#clip0_12_11)">
<path d="M0.0131836 1.56543C36.2142 1.56543 65.5496 49.72 65.5496 109.146C65.5496 168.572 36.2142 216.727 0.0131836 216.727" stroke="#8C38F7" stroke-opacity="0.4" stroke-width="0.918685"/>
<path d="M254.158 141.593C228.318 150.047 195.499 155.235 161.357 155.235C73.9757 155.235 3.07153 122.61 3.07153 82.345C3.07153 42.0805 73.9757 9.45557 161.357 9.45557C199.681 9.45557 226.758 12.87 254.158 23.3275" stroke="#8C38F7" stroke-opacity="0.4" stroke-width="0.918685"/>
<path d="M254.158 195.302C226.758 205.822 199.992 208.772 161.544 208.772C74.1615 208.772 3.25732 176.085 3.25732 135.883C3.25732 95.6804 74.1615 62.9307 161.544 62.9307C195.685 62.9307 228.204 67.7524 254.043 76.206" stroke="#8C38F7" stroke-opacity="0.4" stroke-width="0.918685"/>
<path d="M506.828 216.727C470.627 216.727 441.292 168.572 441.292 109.146C441.292 49.72 470.627 1.56543 506.828 1.56543" stroke="#8C38F7" stroke-opacity="0.4" stroke-width="0.918685"/>
<path d="M253.857 76.5214C279.698 68.0677 311.342 63.0581 345.484 63.0581C432.865 63.0581 503.77 95.6828 503.77 135.948C503.77 176.212 432.928 208.837 345.484 208.837C307.16 208.837 281.559 205.759 254.158 195.301" stroke="#8C38F7" stroke-opacity="0.4" stroke-width="0.918685"/>
<path d="M254.159 23.3276C281.559 12.8075 306.973 9.26758 345.421 9.26758C432.803 9.26758 503.707 41.8925 503.707 82.1571C503.707 122.421 432.865 155.046 345.421 155.046C311.28 155.046 279.999 150.047 254.159 141.593" stroke="#8C38F7" stroke-opacity="0.4" stroke-width="0.918685"/>
<path d="M256.541 217.541C336.377 217.541 401.096 169.011 401.096 109.146C401.096 49.2815 336.377 0.751465 256.541 0.751465C176.707 0.751465 111.987 49.2815 111.987 109.146C111.987 169.011 176.707 217.541 256.541 217.541Z" stroke="#8C38F7" stroke-opacity="0.4" stroke-width="0.918685"/>
<path d="M254.169 0.751465V217.541" stroke="#8C38F7" stroke-opacity="0.4" stroke-width="0.918685"/>
</g>
<defs>
<clipPath id="clip0_12_11">
<rect width="507.114" height="220.484" fill="white" transform="translate(0.0131836)"/>
</clipPath>
</defs>
</svg>
